<mxfile host="app.diagrams.net" modified="2023-10-10T09:57:55.403Z" agent="Mozilla/5.0 (Windows NT 10.0; Win64; x64) AppleWebKit/537.36 (KHTML, like Gecko) Chrome/117.0.0.0 Safari/537.36" etag="6FCT9HDZqZsg0eGmemLw" version="22.0.4" type="github">
  <diagram name="Pagina-1" id="6nUtuiSH0yaf7QekKCy3">
    <mxGraphModel dx="778" dy="538" grid="1" gridSize="10" guides="1" tooltips="1" connect="1" arrows="1" fold="1" page="1" pageScale="1" pageWidth="827" pageHeight="1169" math="0" shadow="0">
      <root>
        <mxCell id="0" />
        <mxCell id="1" parent="0" />
        <mxCell id="4k9_lvRQiwa9aVwCoNm_-14" style="edgeStyle=orthogonalEdgeStyle;rounded=0;orthogonalLoop=1;jettySize=auto;html=1;exitX=1;exitY=0.3333333333333333;exitDx=0;exitDy=0;exitPerimeter=0;entryX=0;entryY=0.5;entryDx=0;entryDy=0;endArrow=none;endFill=0;" edge="1" parent="1" source="4k9_lvRQiwa9aVwCoNm_-2" target="4k9_lvRQiwa9aVwCoNm_-9">
          <mxGeometry relative="1" as="geometry">
            <Array as="points">
              <mxPoint x="120" y="490" />
            </Array>
          </mxGeometry>
        </mxCell>
        <mxCell id="4k9_lvRQiwa9aVwCoNm_-17" style="edgeStyle=orthogonalEdgeStyle;rounded=0;orthogonalLoop=1;jettySize=auto;html=1;exitX=1;exitY=0.3333333333333333;exitDx=0;exitDy=0;exitPerimeter=0;entryX=0;entryY=0.5;entryDx=0;entryDy=0;endArrow=none;endFill=0;" edge="1" parent="1" source="4k9_lvRQiwa9aVwCoNm_-2" target="4k9_lvRQiwa9aVwCoNm_-16">
          <mxGeometry relative="1" as="geometry" />
        </mxCell>
        <mxCell id="4k9_lvRQiwa9aVwCoNm_-75" style="edgeStyle=orthogonalEdgeStyle;rounded=0;orthogonalLoop=1;jettySize=auto;html=1;exitX=1;exitY=0.3333333333333333;exitDx=0;exitDy=0;exitPerimeter=0;entryX=0;entryY=0.5;entryDx=0;entryDy=0;endArrow=none;endFill=0;" edge="1" parent="1" source="4k9_lvRQiwa9aVwCoNm_-2" target="4k9_lvRQiwa9aVwCoNm_-18">
          <mxGeometry relative="1" as="geometry">
            <Array as="points">
              <mxPoint x="120" y="630" />
            </Array>
          </mxGeometry>
        </mxCell>
        <mxCell id="4k9_lvRQiwa9aVwCoNm_-2" value="Actor" style="shape=umlActor;verticalLabelPosition=bottom;verticalAlign=top;html=1;outlineConnect=0;" vertex="1" parent="1">
          <mxGeometry y="520" width="80" height="120" as="geometry" />
        </mxCell>
        <mxCell id="4k9_lvRQiwa9aVwCoNm_-70" style="edgeStyle=orthogonalEdgeStyle;rounded=0;orthogonalLoop=1;jettySize=auto;html=1;exitX=0;exitY=0.3333333333333333;exitDx=0;exitDy=0;exitPerimeter=0;entryX=1;entryY=0.5;entryDx=0;entryDy=0;endArrow=none;endFill=0;" edge="1" parent="1" source="4k9_lvRQiwa9aVwCoNm_-3" target="4k9_lvRQiwa9aVwCoNm_-18">
          <mxGeometry relative="1" as="geometry">
            <Array as="points">
              <mxPoint x="690" y="560" />
              <mxPoint x="690" y="630" />
            </Array>
          </mxGeometry>
        </mxCell>
        <mxCell id="4k9_lvRQiwa9aVwCoNm_-3" value="jarvis" style="shape=umlActor;verticalLabelPosition=bottom;verticalAlign=top;html=1;outlineConnect=0;" vertex="1" parent="1">
          <mxGeometry x="760" y="520" width="80" height="120" as="geometry" />
        </mxCell>
        <mxCell id="4k9_lvRQiwa9aVwCoNm_-5" value="inloggen" style="ellipse;whiteSpace=wrap;html=1;" vertex="1" parent="1">
          <mxGeometry x="344" y="390" width="70" height="40" as="geometry" />
        </mxCell>
        <mxCell id="4k9_lvRQiwa9aVwCoNm_-25" style="edgeStyle=orthogonalEdgeStyle;rounded=0;orthogonalLoop=1;jettySize=auto;html=1;exitX=1;exitY=0.5;exitDx=0;exitDy=0;endArrow=none;endFill=0;" edge="1" parent="1" source="4k9_lvRQiwa9aVwCoNm_-9" target="4k9_lvRQiwa9aVwCoNm_-24">
          <mxGeometry relative="1" as="geometry" />
        </mxCell>
        <mxCell id="4k9_lvRQiwa9aVwCoNm_-9" value="opdracht bekijken" style="ellipse;whiteSpace=wrap;html=1;" vertex="1" parent="1">
          <mxGeometry x="230" y="465" width="70" height="50" as="geometry" />
        </mxCell>
        <mxCell id="4k9_lvRQiwa9aVwCoNm_-50" style="edgeStyle=orthogonalEdgeStyle;rounded=0;orthogonalLoop=1;jettySize=auto;html=1;exitX=1;exitY=0.5;exitDx=0;exitDy=0;entryX=0;entryY=0.5;entryDx=0;entryDy=0;endArrow=none;endFill=0;" edge="1" parent="1" source="4k9_lvRQiwa9aVwCoNm_-16" target="4k9_lvRQiwa9aVwCoNm_-47">
          <mxGeometry relative="1" as="geometry" />
        </mxCell>
        <mxCell id="4k9_lvRQiwa9aVwCoNm_-16" value="statistics bekijken" style="ellipse;whiteSpace=wrap;html=1;" vertex="1" parent="1">
          <mxGeometry x="230" y="535" width="70" height="50" as="geometry" />
        </mxCell>
        <mxCell id="4k9_lvRQiwa9aVwCoNm_-18" value="reviewen" style="ellipse;whiteSpace=wrap;html=1;" vertex="1" parent="1">
          <mxGeometry x="414" y="610" width="70" height="40" as="geometry" />
        </mxCell>
        <mxCell id="4k9_lvRQiwa9aVwCoNm_-20" value="doelen stellen" style="ellipse;whiteSpace=wrap;html=1;" vertex="1" parent="1">
          <mxGeometry x="414" y="730" width="70" height="40" as="geometry" />
        </mxCell>
        <mxCell id="4k9_lvRQiwa9aVwCoNm_-29" style="edgeStyle=orthogonalEdgeStyle;rounded=0;orthogonalLoop=1;jettySize=auto;html=1;exitX=1;exitY=0.5;exitDx=0;exitDy=0;entryX=0;entryY=0.5;entryDx=0;entryDy=0;endArrow=none;endFill=0;" edge="1" parent="1" source="4k9_lvRQiwa9aVwCoNm_-31" target="4k9_lvRQiwa9aVwCoNm_-26">
          <mxGeometry relative="1" as="geometry" />
        </mxCell>
        <mxCell id="4k9_lvRQiwa9aVwCoNm_-24" value="opdracht maken" style="ellipse;whiteSpace=wrap;html=1;" vertex="1" parent="1">
          <mxGeometry x="344" y="465" width="70" height="50" as="geometry" />
        </mxCell>
        <mxCell id="4k9_lvRQiwa9aVwCoNm_-26" value="student kijkt opdracht na" style="ellipse;whiteSpace=wrap;html=1;" vertex="1" parent="1">
          <mxGeometry x="570" y="465" width="80" height="50" as="geometry" />
        </mxCell>
        <mxCell id="4k9_lvRQiwa9aVwCoNm_-33" value="" style="edgeStyle=orthogonalEdgeStyle;rounded=0;orthogonalLoop=1;jettySize=auto;html=1;exitX=1;exitY=0.5;exitDx=0;exitDy=0;entryX=0;entryY=0.5;entryDx=0;entryDy=0;endArrow=none;endFill=0;" edge="1" parent="1" source="4k9_lvRQiwa9aVwCoNm_-24" target="4k9_lvRQiwa9aVwCoNm_-31">
          <mxGeometry relative="1" as="geometry">
            <mxPoint x="414" y="490" as="sourcePoint" />
            <mxPoint x="570" y="490" as="targetPoint" />
          </mxGeometry>
        </mxCell>
        <mxCell id="4k9_lvRQiwa9aVwCoNm_-31" value="opdracht inleveren" style="ellipse;whiteSpace=wrap;html=1;" vertex="1" parent="1">
          <mxGeometry x="460" y="465" width="70" height="50" as="geometry" />
        </mxCell>
        <mxCell id="4k9_lvRQiwa9aVwCoNm_-36" value="blast" style="ellipse;whiteSpace=wrap;html=1;" vertex="1" parent="1">
          <mxGeometry x="460" y="400" width="70" height="40" as="geometry" />
        </mxCell>
        <mxCell id="4k9_lvRQiwa9aVwCoNm_-37" value="&amp;lt;&amp;lt;extends&amp;gt;&amp;gt;" style="text;html=1;strokeColor=none;fillColor=none;align=center;verticalAlign=middle;whiteSpace=wrap;rounded=0;" vertex="1" parent="1">
          <mxGeometry x="465" y="370" width="60" height="30" as="geometry" />
        </mxCell>
        <mxCell id="4k9_lvRQiwa9aVwCoNm_-38" value="" style="endArrow=none;dashed=1;html=1;dashPattern=1 3;strokeWidth=2;rounded=0;entryX=0.5;entryY=1;entryDx=0;entryDy=0;exitX=0.5;exitY=0;exitDx=0;exitDy=0;" edge="1" parent="1" source="4k9_lvRQiwa9aVwCoNm_-31" target="4k9_lvRQiwa9aVwCoNm_-36">
          <mxGeometry width="50" height="50" relative="1" as="geometry">
            <mxPoint x="440" y="480" as="sourcePoint" />
            <mxPoint x="490" y="430" as="targetPoint" />
          </mxGeometry>
        </mxCell>
        <mxCell id="4k9_lvRQiwa9aVwCoNm_-47" value="leaderbord" style="ellipse;whiteSpace=wrap;html=1;" vertex="1" parent="1">
          <mxGeometry x="344" y="535" width="70" height="50" as="geometry" />
        </mxCell>
        <mxCell id="4k9_lvRQiwa9aVwCoNm_-55" value="afgekeurd" style="ellipse;whiteSpace=wrap;html=1;" vertex="1" parent="1">
          <mxGeometry x="570" y="535" width="80" height="40" as="geometry" />
        </mxCell>
        <mxCell id="4k9_lvRQiwa9aVwCoNm_-58" value="&amp;lt;&amp;lt;extends&amp;gt;&amp;gt;" style="text;html=1;strokeColor=none;fillColor=none;align=center;verticalAlign=middle;whiteSpace=wrap;rounded=0;" vertex="1" parent="1">
          <mxGeometry x="580" y="575" width="60" height="30" as="geometry" />
        </mxCell>
        <mxCell id="4k9_lvRQiwa9aVwCoNm_-60" style="edgeStyle=orthogonalEdgeStyle;rounded=0;orthogonalLoop=1;jettySize=auto;html=1;exitX=1;exitY=0.5;exitDx=0;exitDy=0;entryX=0;entryY=0.3333333333333333;entryDx=0;entryDy=0;entryPerimeter=0;endArrow=none;endFill=0;" edge="1" parent="1" source="4k9_lvRQiwa9aVwCoNm_-26" target="4k9_lvRQiwa9aVwCoNm_-3">
          <mxGeometry relative="1" as="geometry">
            <Array as="points">
              <mxPoint x="690" y="490" />
              <mxPoint x="690" y="560" />
            </Array>
          </mxGeometry>
        </mxCell>
        <mxCell id="4k9_lvRQiwa9aVwCoNm_-65" value="" style="endArrow=none;dashed=1;html=1;dashPattern=1 3;strokeWidth=2;rounded=0;entryX=0.5;entryY=1;entryDx=0;entryDy=0;exitX=0.5;exitY=0;exitDx=0;exitDy=0;" edge="1" parent="1" source="4k9_lvRQiwa9aVwCoNm_-55" target="4k9_lvRQiwa9aVwCoNm_-26">
          <mxGeometry width="50" height="50" relative="1" as="geometry">
            <mxPoint x="530" y="570" as="sourcePoint" />
            <mxPoint x="580" y="520" as="targetPoint" />
          </mxGeometry>
        </mxCell>
        <mxCell id="4k9_lvRQiwa9aVwCoNm_-69" style="edgeStyle=orthogonalEdgeStyle;rounded=0;orthogonalLoop=1;jettySize=auto;html=1;exitX=0.5;exitY=0;exitDx=0;exitDy=0;entryX=0.5;entryY=1;entryDx=0;entryDy=0;" edge="1" parent="1" source="4k9_lvRQiwa9aVwCoNm_-66" target="4k9_lvRQiwa9aVwCoNm_-31">
          <mxGeometry relative="1" as="geometry" />
        </mxCell>
        <mxCell id="4k9_lvRQiwa9aVwCoNm_-66" value="verbetering opdracht" style="ellipse;whiteSpace=wrap;html=1;" vertex="1" parent="1">
          <mxGeometry x="460" y="535" width="70" height="40" as="geometry" />
        </mxCell>
        <mxCell id="4k9_lvRQiwa9aVwCoNm_-67" value="&amp;lt;&amp;lt;include&amp;gt;&amp;gt;" style="text;html=1;strokeColor=none;fillColor=none;align=center;verticalAlign=middle;whiteSpace=wrap;rounded=0;" vertex="1" parent="1">
          <mxGeometry x="465" y="575" width="60" height="30" as="geometry" />
        </mxCell>
        <mxCell id="4k9_lvRQiwa9aVwCoNm_-68" value="" style="endArrow=none;dashed=1;html=1;dashPattern=1 3;strokeWidth=2;rounded=0;exitX=1;exitY=0.5;exitDx=0;exitDy=0;entryX=0;entryY=0.5;entryDx=0;entryDy=0;" edge="1" parent="1" source="4k9_lvRQiwa9aVwCoNm_-66" target="4k9_lvRQiwa9aVwCoNm_-55">
          <mxGeometry width="50" height="50" relative="1" as="geometry">
            <mxPoint x="520" y="600" as="sourcePoint" />
            <mxPoint x="570" y="550" as="targetPoint" />
          </mxGeometry>
        </mxCell>
        <mxCell id="4k9_lvRQiwa9aVwCoNm_-71" style="edgeStyle=orthogonalEdgeStyle;rounded=0;orthogonalLoop=1;jettySize=auto;html=1;exitX=1;exitY=0.5;exitDx=0;exitDy=0;entryX=0;entryY=0.3333333333333333;entryDx=0;entryDy=0;entryPerimeter=0;endArrow=none;endFill=0;" edge="1" parent="1" source="4k9_lvRQiwa9aVwCoNm_-20" target="4k9_lvRQiwa9aVwCoNm_-3">
          <mxGeometry relative="1" as="geometry">
            <Array as="points">
              <mxPoint x="690" y="750" />
              <mxPoint x="690" y="560" />
            </Array>
          </mxGeometry>
        </mxCell>
        <mxCell id="4k9_lvRQiwa9aVwCoNm_-73" style="edgeStyle=orthogonalEdgeStyle;rounded=0;orthogonalLoop=1;jettySize=auto;html=1;exitX=1;exitY=0.5;exitDx=0;exitDy=0;entryX=0;entryY=0.5;entryDx=0;entryDy=0;endArrow=none;endFill=0;" edge="1" parent="1" source="4k9_lvRQiwa9aVwCoNm_-51" target="4k9_lvRQiwa9aVwCoNm_-5">
          <mxGeometry relative="1" as="geometry" />
        </mxCell>
        <mxCell id="4k9_lvRQiwa9aVwCoNm_-51" value="aanmaak profiel" style="ellipse;whiteSpace=wrap;html=1;" vertex="1" parent="1">
          <mxGeometry x="230" y="390" width="70" height="40" as="geometry" />
        </mxCell>
        <mxCell id="4k9_lvRQiwa9aVwCoNm_-74" style="edgeStyle=orthogonalEdgeStyle;rounded=0;orthogonalLoop=1;jettySize=auto;html=1;exitX=0;exitY=0.5;exitDx=0;exitDy=0;entryX=1;entryY=0.3333333333333333;entryDx=0;entryDy=0;entryPerimeter=0;endArrow=none;endFill=0;" edge="1" parent="1" source="4k9_lvRQiwa9aVwCoNm_-51" target="4k9_lvRQiwa9aVwCoNm_-2">
          <mxGeometry relative="1" as="geometry">
            <Array as="points">
              <mxPoint x="120" y="410" />
            </Array>
          </mxGeometry>
        </mxCell>
        <mxCell id="4k9_lvRQiwa9aVwCoNm_-76" style="edgeStyle=orthogonalEdgeStyle;rounded=0;orthogonalLoop=1;jettySize=auto;html=1;exitX=0;exitY=0.5;exitDx=0;exitDy=0;entryX=1;entryY=0.3333333333333333;entryDx=0;entryDy=0;entryPerimeter=0;endArrow=none;endFill=0;" edge="1" parent="1" source="4k9_lvRQiwa9aVwCoNm_-20" target="4k9_lvRQiwa9aVwCoNm_-2">
          <mxGeometry relative="1" as="geometry">
            <Array as="points">
              <mxPoint x="120" y="750" />
            </Array>
          </mxGeometry>
        </mxCell>
        <mxCell id="4k9_lvRQiwa9aVwCoNm_-77" value="afkeuring" style="ellipse;whiteSpace=wrap;html=1;" vertex="1" parent="1">
          <mxGeometry x="414" y="670" width="70" height="40" as="geometry" />
        </mxCell>
        <mxCell id="4k9_lvRQiwa9aVwCoNm_-78" value="" style="endArrow=none;dashed=1;html=1;dashPattern=1 3;strokeWidth=2;rounded=0;entryX=0.5;entryY=1;entryDx=0;entryDy=0;exitX=0.5;exitY=0;exitDx=0;exitDy=0;" edge="1" parent="1" source="4k9_lvRQiwa9aVwCoNm_-77" target="4k9_lvRQiwa9aVwCoNm_-18">
          <mxGeometry width="50" height="50" relative="1" as="geometry">
            <mxPoint x="360" y="700" as="sourcePoint" />
            <mxPoint x="410" y="650" as="targetPoint" />
          </mxGeometry>
        </mxCell>
        <mxCell id="4k9_lvRQiwa9aVwCoNm_-79" value="&amp;lt;&amp;lt;extends&amp;gt;&amp;gt;" style="text;html=1;strokeColor=none;fillColor=none;align=center;verticalAlign=middle;whiteSpace=wrap;rounded=0;" vertex="1" parent="1">
          <mxGeometry x="344" y="675" width="60" height="30" as="geometry" />
        </mxCell>
        <mxCell id="4k9_lvRQiwa9aVwCoNm_-82" value="issue aanmaken" style="ellipse;whiteSpace=wrap;html=1;" vertex="1" parent="1">
          <mxGeometry x="575" y="670" width="70" height="40" as="geometry" />
        </mxCell>
        <mxCell id="4k9_lvRQiwa9aVwCoNm_-84" value="&amp;lt;&amp;lt;include&amp;gt;&amp;gt;" style="text;html=1;strokeColor=none;fillColor=none;align=center;verticalAlign=middle;whiteSpace=wrap;rounded=0;" vertex="1" parent="1">
          <mxGeometry x="495" y="660" width="60" height="30" as="geometry" />
        </mxCell>
        <mxCell id="4k9_lvRQiwa9aVwCoNm_-85" value="" style="endArrow=none;dashed=1;html=1;dashPattern=1 3;strokeWidth=2;rounded=0;entryX=0;entryY=0.5;entryDx=0;entryDy=0;exitX=1;exitY=0.5;exitDx=0;exitDy=0;" edge="1" parent="1" source="4k9_lvRQiwa9aVwCoNm_-77" target="4k9_lvRQiwa9aVwCoNm_-82">
          <mxGeometry width="50" height="50" relative="1" as="geometry">
            <mxPoint x="490" y="730" as="sourcePoint" />
            <mxPoint x="540" y="680" as="targetPoint" />
          </mxGeometry>
        </mxCell>
        <mxCell id="4k9_lvRQiwa9aVwCoNm_-86" style="edgeStyle=orthogonalEdgeStyle;rounded=0;orthogonalLoop=1;jettySize=auto;html=1;exitX=1;exitY=0.5;exitDx=0;exitDy=0;entryX=0;entryY=0.3333333333333333;entryDx=0;entryDy=0;entryPerimeter=0;endArrow=none;endFill=0;" edge="1" parent="1" source="4k9_lvRQiwa9aVwCoNm_-82" target="4k9_lvRQiwa9aVwCoNm_-3">
          <mxGeometry relative="1" as="geometry">
            <Array as="points">
              <mxPoint x="690" y="690" />
              <mxPoint x="690" y="560" />
            </Array>
          </mxGeometry>
        </mxCell>
      </root>
    </mxGraphModel>
  </diagram>
</mxfile>
